<svg width="80" height="80" viewBox="0 0 80 80" fill="none" xmlns="http://www.w3.org/2000/svg">
<path d="M58.3333 63.3333H30C25.6729 63.3322 21.4313 62.1278 17.7492 59.8549C14.0672 57.5819 11.0897 54.3298 9.14957 50.462C7.2094 46.5942 6.38297 42.2631 6.76264 37.9527C7.1423 33.6423 8.71309 29.5223 11.2995 26.0532C13.8859 22.5842 17.386 19.9026 21.4087 18.3083C25.4313 16.7139 29.8181 16.2695 34.0788 17.0248C38.3395 17.7801 42.3063 19.7053 45.5358 22.5853C48.7653 25.4653 51.1303 29.1866 52.3667 33.3333H58.3333C62.3116 33.3333 66.1269 34.9137 68.9399 37.7267C71.753 40.5397 73.3333 44.3551 73.3333 48.3333C73.3333 52.3115 71.753 56.1269 68.9399 58.9399C66.1269 61.7529 62.3116 63.3333 58.3333 63.3333Z" stroke="white" stroke-width="6.66667" stroke-linecap="round" stroke-linejoin="round"/>
</svg>
