<svg width="80" height="80" viewBox="0 0 80 80" fill="none" xmlns="http://www.w3.org/2000/svg">
<path d="M13.3333 49.6634C10.8568 47.1331 8.98855 44.0724 7.87011 40.7132C6.75166 37.3539 6.41234 33.7842 6.87786 30.2744C7.34337 26.7645 8.60151 23.4067 10.557 20.4551C12.5124 17.5036 15.1139 15.0357 18.1644 13.2385C21.2149 11.4413 24.6344 10.3619 28.1639 10.082C31.6933 9.80203 35.2402 10.329 38.5359 11.6229C41.8315 12.9168 44.7895 14.9437 47.1858 17.5502C49.582 20.1566 51.3537 23.2741 52.3667 26.6667H58.3333C61.5517 26.6663 64.6848 27.7011 67.27 29.6182C69.8551 31.5352 71.755 34.2329 72.6892 37.3127C73.6234 40.3925 73.5423 43.6911 72.4577 46.7213C71.3732 49.7514 69.3429 52.3524 66.6667 54.14" stroke="#93C5FD" stroke-width="6.66667" stroke-linecap="round" stroke-linejoin="round"/>
<path d="M53.3333 46.6666V66.6666" stroke="#93C5FD" stroke-width="6.66667" stroke-linecap="round" stroke-linejoin="round"/>
<path d="M26.6667 46.6666V66.6666" stroke="#93C5FD" stroke-width="6.66667" stroke-linecap="round" stroke-linejoin="round"/>
<path d="M40 53.3334V73.3334" stroke="#93C5FD" stroke-width="6.66667" stroke-linecap="round" stroke-linejoin="round"/>
</svg>
