<svg width="80" height="80" viewBox="0 0 80 80" fill="none" xmlns="http://www.w3.org/2000/svg">
<path d="M59 25.6666C59.9757 24.7271 61.1656 24.0397 62.4669 23.6637C63.7681 23.2877 65.1414 23.2346 66.4678 23.5089C67.7942 23.7832 69.0337 24.3767 70.0791 25.2379C71.1244 26.0992 71.9441 27.2023 72.4671 28.4517C72.9901 29.7011 73.2007 31.0592 73.0806 32.4083C72.9605 33.7574 72.5134 35.057 71.778 36.1944C71.0425 37.3318 70.0409 38.2727 68.8599 38.9359C67.6788 39.599 66.354 39.9642 65 39.9999H6.66666" stroke="#D1D5DB" stroke-width="6.66667" stroke-linecap="round" stroke-linejoin="round"/>
<path d="M32 15.3333C32.7723 14.5457 33.7279 13.962 34.7813 13.6345C35.8346 13.307 36.9528 13.2461 38.0355 13.4571C39.1182 13.6681 40.1316 14.1444 40.985 14.8435C41.8383 15.5425 42.5048 16.4423 42.9248 17.4623C43.3448 18.4823 43.5052 19.5906 43.3915 20.6878C43.2778 21.785 42.8936 22.8369 42.2734 23.7491C41.6531 24.6613 40.8163 25.4053 39.8377 25.9145C38.8592 26.4237 37.7696 26.6822 36.6667 26.6667H6.66666" stroke="#D1D5DB" stroke-width="6.66667" stroke-linecap="round" stroke-linejoin="round"/>
<path d="M42 64.6666C42.7723 65.4543 43.7279 66.038 44.7813 66.3655C45.8346 66.6929 46.9528 66.7539 48.0355 66.5429C49.1182 66.3319 50.1316 65.8555 50.985 65.1565C51.8383 64.4575 52.5048 63.5576 52.9248 62.5376C53.3448 61.5176 53.5052 60.4094 53.3915 59.3122C53.2778 58.215 52.8936 57.1631 52.2734 56.2509C51.6531 55.3387 50.8163 54.5946 49.8377 54.0854C48.8592 53.5762 47.7696 53.3178 46.6667 53.3333H6.66666" stroke="#D1D5DB" stroke-width="6.66667" stroke-linecap="round" stroke-linejoin="round"/>
</svg>
